HIERARCHY
ROOT hip
{
	OFFSET 0.000000 0.000000 0.000000 
	CHANNELS 6 Xposition Yposition Zposition Xrotation Zrotation Yrotation
	JOINT abdomen
	{
		OFFSET 0.000000 3.402643 0.000000 
		CHANNELS 3 Xrotation Zrotation Yrotation
		JOINT chest
		{
			OFFSET 0.000000 8.438565 -0.680529 
			CHANNELS 3 Xrotation Zrotation Yrotation
			JOINT neck
			{
				OFFSET 0.000000 10.207942 -0.272212 
				CHANNELS 3 Xrotation Zrotation Yrotation
				JOINT head
				{
					OFFSET 0.000000 3.130431 0.000000 
					CHANNELS 3 Xrotation Zrotation Yrotation
					End Site
					{
						OFFSET 0.000000 3.130435 0.000000 
					}
				}
			}
			JOINT lCollar
			{
				OFFSET 3.470700 6.669187 -0.816635 
				CHANNELS 3 Yrotation Zrotation Xrotation
				JOINT lShldr
				{
					OFFSET 3.198488 0.000000 0.000000 
					CHANNELS 3 Zrotation Yrotation Xrotation
					JOINT lForeArm
					{
						OFFSET 10.139888 0.000000 0.000000 
						CHANNELS 3 Yrotation Zrotation Xrotation
						JOINT lHand
						{
							OFFSET 8.370511 0.000000 0.000000 
							CHANNELS 3 Zrotation Yrotation Xrotation
							End Site
							{
								OFFSET 4.083176 0.000000 0.000000 
							}
						}
					}
				}
			}
			JOINT rCollar
			{
				OFFSET -3.470700 6.669187 -0.816635 
				CHANNELS 3 Yrotation Zrotation Xrotation
				JOINT rShldr
				{
					OFFSET -3.198488 0.000000 0.000000 
					CHANNELS 3 Zrotation Yrotation Xrotation
					JOINT rForeArm
					{
						OFFSET -10.139888 0.000000 0.000000 
						CHANNELS 3 Yrotation Zrotation Xrotation
						JOINT rHand
						{
							OFFSET -8.370511 0.000000 0.000000 
							CHANNELS 3 Zrotation Yrotation Xrotation
							End Site
							{
								OFFSET -4.083176 0.000000 0.000000 
							}
						}
					}
				}
			}
		}
	}
	JOINT lThigh
	{
		OFFSET 5.308129 -1.633274 1.361059 
		CHANNELS 3 Xrotation Zrotation Yrotation
		JOINT lShin
		{
			OFFSET -2.041588 -20.007561 0.000000 
			CHANNELS 3 Xrotation Zrotation Yrotation
			JOINT lFoot
			{
				OFFSET 0.000000 -19.190928 -1.224953 
				CHANNELS 3 Xrotation Yrotation Zrotation
				End Site
				{
					OFFSET 0.000000 -2.449906 4.627600 
				}
			}
		}
	}
	JOINT rThigh
	{
		OFFSET -5.308129 -1.633274 1.361059 
		CHANNELS 3 Xrotation Zrotation Yrotation
		JOINT rShin
		{
			OFFSET 2.041588 -20.007561 0.000000 
			CHANNELS 3 Xrotation Zrotation Yrotation
			JOINT rFoot
			{
				OFFSET 0.000000 -19.190928 -1.224953 
				CHANNELS 3 Xrotation Yrotation Zrotation
				End Site
				{
					OFFSET 0.000000 -2.449906 4.627600 
				}
			}
		}
	}
}
MOTION
Frames: 8
Frame Time: 0.066667
0.404704 40.799782 0.307321 -0.314271 0.314271 -33.085739 -0.429915 -2.609335 22.656399 1.633463 -1.217941 -34.229607 29.351212 0.000000 0.000000 0.640299 -3.185144 16.840670 -13.252295 1.493759 -1.748087 -90.102058 24.099243 6.698617 -13.716088 -9.498306 71.208527 3.340781 -12.092505 -0.351397 15.778172 8.130061 -0.064322 72.417526 19.318024 -1.256674 135.877441 -7.531899 0.147504 46.828590 8.459020 -10.924747 -9.416102 3.446296 0.137911 29.926901 -3.070609 -27.920759 -20.550138 28.691727 6.801458 -19.581873 -3.190480 -0.184551 32.135532 2.048406 33.614986 -3.559412 28.340677 2.635011 
0.395389 40.814163 0.324680 -0.245626 0.245626 -31.153795 0.322956 -3.173349 22.797438 1.751685 -1.230480 -33.730648 37.000824 0.000000 0.000000 2.628833 -3.409849 8.740512 -11.126942 1.972520 -1.892272 -87.783470 23.605091 6.365511 -13.938302 -11.115559 73.896835 5.888166 -15.491755 -0.993747 18.376617 7.557948 -0.063981 77.561531 18.528736 -0.743865 135.570007 -7.324585 0.147357 40.757397 8.609591 -11.001871 -9.619162 3.773347 0.100087 29.917847 -3.067703 -27.909410 -19.982067 26.721586 6.392630 -19.300711 -3.153566 -0.185730 32.038136 2.049878 33.591061 -4.079814 26.437998 2.830332 
0.402407 40.802876 0.312227 -0.117987 0.117987 -28.487782 1.095273 -3.741480 22.675117 2.026173 -1.270766 -33.145859 44.269691 0.000000 0.000000 4.955626 -3.722959 0.809218 -9.083441 3.359107 -1.998778 -85.851997 22.910686 6.055881 -14.309278 -12.592058 74.904396 8.056128 -18.156801 -1.596178 20.909658 5.327807 -0.063613 84.609558 17.717079 0.409689 135.398834 -7.122025 0.147216 35.692451 8.688311 -11.078964 -10.249552 4.287585 0.032841 30.378178 -3.080978 -27.912056 -19.451603 24.131620 5.950874 -19.130785 -3.036833 -0.200383 32.146778 2.052031 33.558075 -4.769036 23.812254 3.026150 
0.435050 40.751617 0.252603 0.000000 0.000000 -25.042461 1.789612 -4.267927 22.115681 2.516771 -1.364421 -32.545757 50.135277 0.000000 0.000000 7.839917 -3.874708 -4.816322 -7.411933 4.731445 -2.103987 -84.299568 22.050814 5.844838 -14.665185 -13.609970 75.049644 9.465706 -19.171148 -2.073525 22.979582 3.014687 -0.063299 90.972298 17.054344 1.607901 135.497742 -6.852290 0.147103 31.623562 8.637476 -11.142563 -11.307056 4.839589 -0.048267 31.270321 -3.066207 -27.955242 -18.906475 20.947475 5.498624 -19.172878 -2.954813 -0.210619 32.664921 2.049928 33.555561 -5.690563 20.497791 3.185477 
0.498761 40.652039 0.135581 0.055274 -0.055274 -20.842527 2.331389 -4.710682 21.042410 3.255013 -1.523302 -31.982306 53.834980 0.000000 0.000000 11.377082 -3.675429 -6.566319 -6.333158 5.364536 -2.233806 -83.105949 21.072687 5.786435 -14.890245 -13.972694 75.016174 9.868559 -17.919401 -2.363852 24.286791 1.864895 -0.063100 94.626137 16.670488 2.375342 135.931244 -6.461394 0.147031 28.490606 8.387367 -11.182465 -12.678375 5.296801 -0.108270 32.436821 -3.048922 -28.023516 -18.258253 17.232038 5.092428 -19.414871 -2.989370 -0.208401 33.623749 2.009930 33.584663 -6.857108 16.564213 3.323049 
0.583604 40.519638 -0.020539 0.057120 -0.057120 -16.192343 2.737365 -5.042911 19.766754 4.159200 -1.704214 -31.433228 55.646030 0.000000 0.000000 15.167067 -3.175826 -5.139406 -5.790238 5.321677 -2.372233 -82.202263 20.073227 5.850482 -15.060892 -13.968556 74.948349 9.538803 -14.990552 -2.498159 24.924177 1.809755 -0.063005 95.810287 16.530146 2.719214 136.486404 -5.967106 0.146997 26.033682 7.820174 -11.201507 -14.285220 5.607652 -0.154055 33.760723 -3.013231 -28.125162 -17.535034 13.156110 4.761034 -19.810429 -3.121750 -0.192923 34.915253 1.932957 33.647846 -8.218153 12.238897 3.410752 
0.675794 40.375877 -0.190325 0.030405 -0.030405 -11.466179 3.047137 -5.241574 18.697205 5.119328 -1.850198 -30.857685 56.105629 0.000000 0.000000 18.685966 -2.486696 -1.801315 -5.656893 4.863243 -2.492790 -81.507477 19.161781 5.985724 -15.301617 -14.007114 74.855728 8.881170 -11.274687 -2.530679 25.082756 2.451849 -0.062983 95.329674 16.556618 2.767382 136.881012 -5.405135 0.146988 23.942942 6.806063 -11.205789 -15.904510 5.809041 -0.190719 35.042770 -3.015275 -28.225218 -16.743683 8.909066 4.574556 -20.227528 -3.304211 -0.171309 36.293613 1.871534 33.728474 -9.650249 7.843258 3.455826 
0.761548 40.242218 -0.348345 0.000000 0.000000 -7.038322 3.300305 -5.283634 18.242262 6.025391 -1.904297 -30.214848 55.750980 0.000000 0.000000 21.409872 -1.718840 2.182217 -5.806845 4.249609 -2.568999 -80.940559 18.447695 6.140914 -15.736910 -14.497932 74.747864 8.300396 -7.661902 -2.515645 24.953547 3.393759 -0.063003 93.989243 16.673210 2.647705 136.832855 -4.811193 0.146995 21.908546 5.215205 -11.201411 -17.415304 5.870840 -0.193317 36.275295 -3.004167 -28.329586 -16.003214 4.658356 4.521770 -20.623251 -3.503098 -0.126567 37.700111 1.814066 33.802189 -11.147262 3.638024 3.411468 
